<?xml version="1.0" encoding="UTF-8" standalone="no"?>
<svg width="122px" height="55px" viewBox="0 0 122 55" version="1.1" xmlns="http://www.w3.org/2000/svg" xmlns:xlink="http://www.w3.org/1999/xlink" xmlns:sketch="http://www.bohemiancoding.com/sketch/ns">
    <!-- Generator: Sketch 3.3.2 (12043) - http://www.bohemiancoding.com/sketch -->
    <title>Imported Layers Copy</title>
    <desc>Created with Sketch.</desc>
    <defs></defs>
    <g id="Page-1" stroke="none" stroke-width="1" fill="none" fill-rule="evenodd" sketch:type="MSPage">
        <g id="Imported-Layers-Copy" sketch:type="MSLayerGroup">
            <path d="M36.1659615,22.4038571 L36.1659615,0.531928571 L40.6846538,0.531928571 L40.6846538,8.8715 L49.1472308,8.8715 L49.1472308,0.531928571 L53.6659231,0.531928571 L53.6659231,22.4038571 L49.1472308,22.4038571 L49.1472308,12.6405714 L40.6846538,12.6405714 L40.6846538,22.4038571 L36.1659615,22.4038571" id="Fill-1" fill="#333333" sketch:type="MSShapeGroup"></path>
            <path d="M67.4308077,6.55678571 C68.5546154,7.06357143 69.4813462,7.86028571 70.2133462,8.94928571 C70.8726154,9.911 71.2996154,11.0259286 71.4966923,12.2940714 C71.6093077,13.0365714 71.6562308,14.1067143 71.6351154,15.5045 L59.9113846,15.5045 C59.9747308,17.1262143 60.5378077,18.2647143 61.5935769,18.9176429 C62.2364231,19.3230714 63.0106538,19.5257857 63.9139231,19.5257857 C64.8735,19.5257857 65.6524231,19.2782857 66.2506923,18.7832857 C66.5791538,18.5169286 66.8677308,18.1445 67.1187692,17.6707143 L71.4145769,17.6707143 C71.3019615,18.6300714 70.7811154,19.6035714 69.8543846,20.5935714 C68.4138462,22.1657857 66.3938077,22.9530714 63.7989615,22.9530714 C61.6569231,22.9530714 59.7659231,22.2883571 58.1283077,20.9636429 C56.4906923,19.6365714 55.6718846,17.4774286 55.6718846,14.4885714 C55.6718846,11.6859286 56.4109231,9.53857143 57.889,8.04178571 C59.3670769,6.54735714 61.2862308,5.80014286 63.6464615,5.80014286 C65.0471154,5.80014286 66.3093462,6.05235714 67.4308077,6.55678571 L67.4308077,6.55678571 Z M61.1360769,10.2103571 C60.5401538,10.8279286 60.1671154,11.6623571 60.0146154,12.7136429 L67.2642308,12.7136429 C67.1891538,11.5916429 66.8137692,10.7407143 66.1451154,10.1585 C65.4741154,9.57628571 64.6412308,9.28635714 63.6488077,9.28635714 C62.5672308,9.28635714 61.7296538,9.59514286 61.1360769,10.2103571 L61.1360769,10.2103571 Z" id="Fill-2" fill="#333333" sketch:type="MSShapeGroup"></path>
            <path d="M80.3956538,12.5651429 C81.1792692,12.4661429 81.74,12.3435714 82.0778462,12.1950714 C82.6808077,11.9381429 82.9834615,11.5374286 82.9834615,10.9929286 C82.9834615,10.3305714 82.7511923,9.87328571 82.289,9.62107143 C81.8244615,9.36885714 81.1417308,9.24157143 80.2455,9.24157143 C79.2366538,9.24157143 78.5234231,9.48907143 78.1034615,9.98407143 C77.8055,10.3494286 77.6037308,10.8444286 77.5051923,11.4690714 L73.444,11.4690714 C73.5331538,10.0524286 73.9273077,8.89035714 74.6311538,7.9805 C75.7479231,6.55678571 77.6647308,5.84492857 80.3862692,5.84492857 C82.1552692,5.84492857 83.7271923,6.19614286 85.1020385,6.89857143 C86.4768846,7.601 87.1643077,8.92571429 87.1643077,10.8750714 L87.1643077,18.293 C87.1643077,18.8092143 87.1736923,19.4315 87.1924615,20.1622143 C87.2229615,20.7161429 87.3074231,21.0932857 87.4435,21.2912857 C87.5819231,21.4892857 87.7883846,21.6519286 88.0652308,21.7815714 L88.0652308,22.4038571 L83.4855385,22.4038571 C83.3588462,22.0762143 83.2696923,21.7697857 83.2204231,21.4822143 C83.1711538,21.197 83.1312692,20.8717143 83.1031154,20.504 C82.5189231,21.1380714 81.8455769,21.6755 81.0830769,22.121 C80.1704231,22.6466429 79.1404615,22.9082857 77.9931923,22.9082857 C76.5268462,22.9082857 75.3162308,22.4910714 74.3613462,21.6542857 C73.4041154,20.8175 72.9278462,19.6342143 72.9278462,18.0997143 C72.9278462,16.1126429 73.6950385,14.6724286 75.2317692,13.7837857 C76.0763846,13.2982143 77.3151538,12.9517143 78.9527692,12.7442857 L80.3956538,12.5651429 L80.3956538,12.5651429 Z M82.9693846,14.5404286 C82.6995769,14.7077857 82.4274231,14.8445 82.1529231,14.9482143 C81.8784231,15.0519286 81.5030385,15.1485714 81.0220769,15.2357857 L80.0648462,15.4149286 C79.1662692,15.5728571 78.5234231,15.7661429 78.1316154,15.9924286 C77.4676538,16.379 77.1368462,16.9777143 77.1368462,17.7885714 C77.1368462,18.5122143 77.3386154,19.0331429 77.7445,19.3537143 C78.1480385,19.6766429 78.6407308,19.8369286 79.2202308,19.8369286 C80.1399231,19.8369286 80.9868846,19.5705714 81.7634615,19.0355 C82.5376923,18.5004286 82.9388846,17.5269286 82.9693846,16.1126429 L82.9693846,14.5404286 L82.9693846,14.5404286 Z" id="Fill-3" fill="#333333" sketch:type="MSShapeGroup"></path>
            <path d="M90.1744231,0.531928571 L94.3834231,0.531928571 L94.3834231,22.4038571 L90.1744231,22.4038571 L90.1744231,0.531928571 Z" id="Fill-4" fill="#333333" sketch:type="MSShapeGroup"></path>
            <path d="M96.0796923,9.39007143 L96.0796923,6.38 L98.3226154,6.38 L98.3226154,1.86842857 L102.487038,1.86842857 L102.487038,6.38 L105.103,6.38 L105.103,9.39007143 L102.487038,9.39007143 L102.487038,17.9370714 C102.487038,18.5994286 102.5715,19.0142857 102.740423,19.1769286 C102.907,19.3395714 103.418462,19.4220714 104.274808,19.4220714 C104.403846,19.4220714 104.537577,19.4197143 104.680692,19.4126429 C104.823808,19.4079286 104.964577,19.4008571 105.103,19.3914286 L105.103,22.5523571 L103.108769,22.6254286 C101.119231,22.6961429 99.7608077,22.3496429 99.0311538,21.5882857 C98.5595769,21.1027143 98.3226154,20.3555 98.3226154,19.3466429 L98.3226154,9.39007143 L96.0796923,9.39007143" id="Fill-5" fill="#333333" sketch:type="MSShapeGroup"></path>
            <path d="M118.616846,6.32107143 C119.426269,6.66521429 120.090231,7.19557143 120.611077,7.90978571 C121.052154,8.51321429 121.321962,9.13314286 121.418154,9.77192857 C121.516692,10.4107143 121.565962,11.4525714 121.565962,12.8998571 L121.565962,22.4038571 L117.267808,22.4038571 L117.267808,12.5557143 C117.267808,11.6835714 117.122346,10.9811429 116.829077,10.4460714 C116.446654,9.69178571 115.724038,9.317 114.658885,9.317 C113.553846,9.317 112.716269,9.68942857 112.146154,10.439 C111.573692,11.1862143 111.287462,12.2516429 111.287462,13.64 L111.287462,22.4038571 L107.078462,22.4038571 L107.078462,0.607357143 L111.287462,0.607357143 L111.287462,8.32228571 C111.895115,7.38178571 112.598962,6.7265 113.396654,6.35642857 C114.196692,5.98635714 115.036615,5.80014286 115.918769,5.80014286 C116.908846,5.80014286 117.809769,5.97221429 118.616846,6.32107143" id="Fill-6" fill="#333333" sketch:type="MSShapeGroup"></path>
            <path d="M43.9129615,49.2823571 L43.9129615,27.4104286 L48.4316538,27.4104286 L48.4316538,35.75 L56.8942308,35.75 L56.8942308,27.4104286 L61.4129231,27.4104286 L61.4129231,49.2823571 L56.8942308,49.2823571 L56.8942308,39.5190714 L48.4316538,39.5190714 L48.4316538,49.2823571 L43.9129615,49.2823571" id="Fill-7" fill="#333333" sketch:type="MSShapeGroup"></path>
            <path d="M71.065,39.4436429 C71.8486154,39.3446429 72.4093462,39.2220714 72.7448462,39.0735714 C73.3501538,38.8166429 73.6528077,38.4159286 73.6528077,37.8714286 C73.6528077,37.2090714 73.4205385,36.7517857 72.9583462,36.4995714 C72.4938077,36.2473571 71.8110769,36.1200714 70.9148462,36.1200714 C69.906,36.1200714 69.1927692,36.3675714 68.7728077,36.8625714 C68.4725,37.2279286 68.2730769,37.7229286 68.1745385,38.3475714 L64.1133462,38.3475714 C64.2025,36.9332857 64.5966538,35.7712143 65.3005,34.859 C66.4172692,33.4352857 68.3340769,32.7234286 71.0556154,32.7234286 C72.8246154,32.7234286 74.3965385,33.0746429 75.7713846,33.7770714 C77.1462308,34.4795 77.8336538,35.8042143 77.8336538,37.7535714 L77.8336538,45.1715 C77.8336538,45.6877143 77.8430385,46.31 77.8618077,47.0430714 C77.8923077,47.5946429 77.9744231,47.9717857 78.1128462,48.1697857 C78.2512692,48.3677857 78.4577308,48.5304286 78.7345769,48.6600714 L78.7345769,49.2823571 L74.1548846,49.2823571 C74.0281923,48.9547143 73.9390385,48.6506429 73.8897692,48.3630714 C73.8405,48.0755 73.8006154,47.7502143 73.7724615,47.3825 C73.1882692,48.0165714 72.5149231,48.554 71.7524231,48.9995 C70.8397692,49.5251429 69.8098077,49.7867857 68.6601923,49.7867857 C67.1961923,49.7867857 65.9855769,49.3695714 65.0306923,48.5327857 C64.0734615,47.696 63.5948462,46.5127143 63.5948462,44.9782143 C63.5948462,42.9911429 64.3643846,41.5509286 65.9011154,40.6622857 C66.7457308,40.1767143 67.9845,39.8302143 69.6221154,39.6227857 L71.065,39.4436429 L71.065,39.4436429 Z M73.6387308,41.4165714 C73.3689231,41.5862857 73.0967692,41.723 72.8222692,41.8267143 C72.5477692,41.9304286 72.1723846,42.0270714 71.6914231,42.1166429 L70.7341923,42.2934286 C69.8356154,42.4513571 69.1904231,42.6446429 68.7986154,42.8709286 C68.137,43.2575 67.8061923,43.8562143 67.8061923,44.6670714 C67.8061923,45.3907143 68.0079615,45.9116429 68.4115,46.2322143 C68.8173846,46.5551429 69.3100769,46.7154286 69.8895769,46.7154286 C70.8092692,46.7154286 71.6562308,46.4490714 72.4304615,45.914 C73.2070385,45.3789286 73.6082308,44.4054286 73.6387308,42.9911429 L73.6387308,41.4165714 L73.6387308,41.4165714 Z" id="Fill-8" fill="#333333" sketch:type="MSShapeGroup"></path>
            <path d="M90.3832308,38.9109286 C90.3058077,38.3075 90.1016923,37.763 89.7755769,37.2774286 C89.304,36.6245 88.5673077,36.2992143 87.5701923,36.2992143 C86.1484231,36.2992143 85.1771154,37.0063571 84.6539231,38.4206429 C84.3770769,39.1702143 84.241,40.1672857 84.241,41.4095 C84.241,42.5951429 84.3770769,43.5474286 84.6539231,44.2663571 C85.1583462,45.6122857 86.1061923,46.2840714 87.4974615,46.2840714 C88.4851923,46.2840714 89.1843462,46.0177143 89.5996154,45.4826429 C90.0125385,44.9499286 90.2659231,44.2569286 90.3550769,43.406 L94.6508846,43.406 C94.5523462,44.693 94.0901538,45.9092857 93.2619615,47.0572143 C91.9410769,48.9075714 89.9843846,49.8315714 87.3942308,49.8315714 C84.8017308,49.8315714 82.8943077,49.0607857 81.6719615,47.5168571 C80.4496154,45.9729286 79.8396154,43.9717143 79.8396154,41.5132143 C79.8396154,38.7388571 80.5129615,36.5820714 81.8643462,35.0381429 C83.2133846,33.4942143 85.0762308,32.7234286 87.4528846,32.7234286 C89.4729231,32.7234286 91.1269615,33.1783571 92.4126538,34.0882143 C93.6983462,34.9980714 94.4585,36.6056429 94.6954615,38.9109286 L90.3832308,38.9109286" id="Fill-9" fill="#333333" sketch:type="MSShapeGroup"></path>
            <path d="M96.7765,27.4858571 L100.910423,27.4858571 L100.910423,39.2833571 L106.219769,33.1830714 L111.454038,33.1830714 L105.684846,39.2079286 L111.676923,49.2823571 L106.555269,49.2823571 L102.653615,42.3712143 L100.910423,44.1932857 L100.910423,49.2823571 L96.7765,49.2823571 L96.7765,27.4858571" id="Fill-10" fill="#333333" sketch:type="MSShapeGroup"></path>
            <path d="M30.1457308,44.33 L30.1457308,39.3116429 L17.3638846,28.5842857 C22.509,24.2754286 29.6272308,18.788 29.6272308,9.78607143 L29.6272308,1.42057143 C29.6272308,0.826571429 29.1462692,0.343357143 28.5550385,0.343357143 C27.9638077,0.343357143 27.4851923,0.826571429 27.4851923,1.42057143 L27.4851923,4.9775 L4.16911538,4.56735714 L4.16911538,1.40171429 L4.14330769,1.40171429 C4.12688462,0.843071429 3.95326923,0.362214286 3.20719231,0.362214286 C2.61596154,0.362214286 2.13734615,0.843071429 2.13734615,1.43707143 L2.13734615,9.78607143 C2.13734615,18.5782143 8.82857692,24.3461429 14.1918846,28.5842857 L2.28280769,38.7129286 L2.28280769,43.7077143 C1.04873077,44.1461429 0.164230769,45.3247143 0.164230769,46.7154286 C0.164230769,48.4785714 1.586,49.907 3.34092308,49.907 C5.09584615,49.907 6.51761538,48.4785714 6.51761538,46.7154286 C6.51761538,45.3270714 5.63546154,44.1508571 4.40373077,43.7100714 L4.40373077,39.5992143 L15.7849231,29.9019286 L21.0426538,34.3734286 L21.0426538,48.3442143 C19.8062308,48.7802857 18.9193846,49.9612143 18.9193846,51.3519286 C18.9193846,53.1150714 20.3411538,54.5458571 22.0960769,54.5458571 C23.851,54.5458571 25.2727692,53.1150714 25.2727692,51.3519286 C25.2727692,49.9659286 24.3929615,48.7897143 23.1635769,48.3489286 L23.1635769,36.2638571 L28.0224615,40.3134286 L28.0224615,44.3323571 C26.7907308,44.7731429 25.9085769,45.9493571 25.9085769,47.3377143 C25.9085769,49.1008571 27.3303462,50.5292857 29.0876154,50.5292857 C30.8425385,50.5292857 32.2643077,49.1008571 32.2643077,47.3377143 C32.2643077,45.9493571 31.3774615,44.7684286 30.1457308,44.33 L30.1457308,44.33 Z M3.34092308,47.7785 C2.75673077,47.7785 2.28046154,47.3023571 2.28046154,46.7154286 C2.28046154,46.1261429 2.75673077,45.6523571 3.34092308,45.6523571 C3.92511538,45.6523571 4.39903846,46.1261429 4.39903846,46.7154286 C4.39903846,47.3023571 3.92511538,47.7785 3.34092308,47.7785 L3.34092308,47.7785 Z M4.27703846,9.78607143 C4.28642308,8.99642857 4.29346154,7.92157143 4.29580769,6.68878571 L27.4851923,7.37942857 L27.4851923,9.78607143 C27.4851923,10.3895 27.45,10.9787857 27.3819615,11.5515714 L4.48115385,12.2327857 C4.34038462,11.4407857 4.26765385,10.6252143 4.27703846,9.78607143 L4.27703846,9.78607143 Z M7.88307692,19.5752857 C6.71703846,18.0313571 5.68707692,16.2776429 5.03015385,14.3495 L26.9784231,13.6965714 C26.5537692,15.3041429 25.8898077,16.7679286 25.0897692,18.0855714 L7.88307692,19.5752857 L7.88307692,19.5752857 Z M9.56057692,21.5694286 L23.4803077,20.3649286 C20.4678462,23.9642857 15.7849231,27.2572143 15.7849231,27.2572143 C15.7849231,27.2572143 10.5905385,23.3160714 9.56057692,21.5694286 L9.56057692,21.5694286 Z M22.0960769,52.4173571 C21.5118846,52.4173571 21.0356154,51.9412143 21.0356154,51.3519286 C21.0356154,50.765 21.5118846,50.2888571 22.0960769,50.2888571 C22.6802692,50.2888571 23.1541923,50.765 23.1541923,51.3519286 C23.1541923,51.9412143 22.6802692,52.4173571 22.0960769,52.4173571 L22.0960769,52.4173571 Z M29.0876154,48.4007857 C28.5010769,48.4007857 28.0271538,47.9246429 28.0271538,47.3377143 C28.0271538,46.7507857 28.5010769,46.2746429 29.0876154,46.2746429 C29.6718077,46.2746429 30.1457308,46.7507857 30.1457308,47.3377143 C30.1457308,47.9246429 29.6718077,48.4007857 29.0876154,48.4007857 L29.0876154,48.4007857 Z" id="Fill-11" fill="#00AA9D" sketch:type="MSShapeGroup"></path>
            <path d="M30.1457308,44.33 L30.1457308,39.3116429 L17.3638846,28.5842857 C22.509,24.2754286 29.6272308,18.788 29.6272308,9.78607143 L29.6272308,1.42057143 C29.6272308,0.826571429 29.1462692,0.343357143 28.5550385,0.343357143 C27.9638077,0.343357143 27.4851923,0.826571429 27.4851923,1.42057143 L27.4851923,4.9775 L4.16911538,4.56735714 L4.16911538,1.40171429 L4.14330769,1.40171429 C4.12688462,0.843071429 3.95326923,0.362214286 3.20719231,0.362214286 C2.61596154,0.362214286 2.13734615,0.843071429 2.13734615,1.43707143 L2.13734615,9.78607143 C2.13734615,18.5782143 8.82857692,24.3461429 14.1918846,28.5842857 L2.28280769,38.7129286 L2.28280769,43.7077143 C1.04873077,44.1461429 0.164230769,45.3247143 0.164230769,46.7154286 C0.164230769,48.4785714 1.586,49.907 3.34092308,49.907 C5.09584615,49.907 6.51761538,48.4785714 6.51761538,46.7154286 C6.51761538,45.3270714 5.63546154,44.1508571 4.40373077,43.7100714 L4.40373077,39.5992143 L15.7849231,29.9019286 L21.0426538,34.3734286 L21.0426538,48.3442143 C19.8062308,48.7802857 18.9193846,49.9612143 18.9193846,51.3519286 C18.9193846,53.1150714 20.3411538,54.5458571 22.0960769,54.5458571 C23.851,54.5458571 25.2727692,53.1150714 25.2727692,51.3519286 C25.2727692,49.9659286 24.3929615,48.7897143 23.1635769,48.3489286 L23.1635769,36.2638571 L28.0224615,40.3134286 L28.0224615,44.3323571 C26.7907308,44.7731429 25.9085769,45.9493571 25.9085769,47.3377143 C25.9085769,49.1008571 27.3303462,50.5292857 29.0876154,50.5292857 C30.8425385,50.5292857 32.2643077,49.1008571 32.2643077,47.3377143 C32.2643077,45.9493571 31.3774615,44.7684286 30.1457308,44.33 L30.1457308,44.33 Z M3.34092308,47.7785 C2.75673077,47.7785 2.28046154,47.3023571 2.28046154,46.7154286 C2.28046154,46.1261429 2.75673077,45.6523571 3.34092308,45.6523571 C3.92511538,45.6523571 4.39903846,46.1261429 4.39903846,46.7154286 C4.39903846,47.3023571 3.92511538,47.7785 3.34092308,47.7785 L3.34092308,47.7785 Z M4.27703846,9.78607143 C4.28642308,8.99642857 4.29346154,7.92157143 4.29580769,6.68878571 L27.4851923,7.37942857 L27.4851923,9.78607143 C27.4851923,10.3895 27.45,10.9787857 27.3819615,11.5515714 L4.48115385,12.2327857 C4.34038462,11.4407857 4.26765385,10.6252143 4.27703846,9.78607143 L4.27703846,9.78607143 Z M7.88307692,19.5752857 C6.71703846,18.0313571 5.68707692,16.2776429 5.03015385,14.3495 L26.9784231,13.6965714 C26.5537692,15.3041429 25.8898077,16.7679286 25.0897692,18.0855714 L7.88307692,19.5752857 L7.88307692,19.5752857 Z M9.56057692,21.5694286 L23.4803077,20.3649286 C20.4678462,23.9642857 15.7849231,27.2572143 15.7849231,27.2572143 C15.7849231,27.2572143 10.5905385,23.3160714 9.56057692,21.5694286 L9.56057692,21.5694286 Z M22.0960769,52.4173571 C21.5118846,52.4173571 21.0356154,51.9412143 21.0356154,51.3519286 C21.0356154,50.765 21.5118846,50.2888571 22.0960769,50.2888571 C22.6802692,50.2888571 23.1541923,50.765 23.1541923,51.3519286 C23.1541923,51.9412143 22.6802692,52.4173571 22.0960769,52.4173571 L22.0960769,52.4173571 Z M29.0876154,48.4007857 C28.5010769,48.4007857 28.0271538,47.9246429 28.0271538,47.3377143 C28.0271538,46.7507857 28.5010769,46.2746429 29.0876154,46.2746429 C29.6718077,46.2746429 30.1457308,46.7507857 30.1457308,47.3377143 C30.1457308,47.9246429 29.6718077,48.4007857 29.0876154,48.4007857 L29.0876154,48.4007857 Z" id="Stroke-12" stroke="#00AA9D" stroke-width="0.1" sketch:type="MSShapeGroup"></path>
        </g>
    </g>
</svg>